<svg width="445" height="377" viewBox="0 0 445 377" fill="none" xmlns="http://www.w3.org/2000/svg">
<g clip-path="url(#clip0_8_28)" transform="translate(100, 0)">
<path d="M273.36 22.81C272.24 16.9 270.4 11.08 268.39 5.40001C266.9 1.17001 262.93 -0.609987 258.54 0.190013C256.82 0.500013 255.04 0.750013 253.44 1.39001C243.48 5.38001 233.38 9.09001 223.65 13.59C200.81 24.16 180.49 38.39 163.24 56.8C160.26 59.99 157.58 63.46 154.85 66.87C153.82 68.17 153.33 70.18 152.05 70.9C151.07 71.45 149.24 70.48 147.78 70.19C147.71 70.17 147.62 70.19 147.55 70.17C139.92 68.74 132.33 69.15 124.81 70.87C123.42 71.19 122.79 70.78 122.13 69.71C121.03 67.96 119.99 66.13 118.62 64.6C109.98 54.91 101.02 45.55 90.81 37.44C69.37 20.43 45.07 9.04001 19.21 0.690013C13.18 -1.24999 8.29 1.44001 6.46 7.62001C0.870002 26.49 -1.53 45.67 1.01 65.33C2.91 80.08 7.59 93.82 15.7 106.3C25.58 121.48 38.09 133.77 54.85 141.27C55.69 141.65 56.47 142.16 57.29 142.61C54.54 144.91 51.86 146.99 49.36 149.27C46.42 151.93 46.54 153.93 49.91 156.11C52.9 158.05 56.04 159.8 59.23 161.41C71.88 167.76 84.42 174.37 97.3 180.21C106.77 184.51 115.97 189.02 124.13 195.54C132.79 202.45 142.61 202.13 151.53 195.48C156.74 191.6 162.27 187.94 168.15 185.23C181.73 178.98 195.5 173.16 208.59 165.86C214 162.83 219.55 160.03 224.96 157C228.31 155.14 228.7 152.69 226.23 149.77C225.21 148.56 223.98 147.52 222.81 146.46C221.46 145.24 220.06 144.07 218.37 142.61C219.09 142.23 219.41 142.03 219.76 141.88C228.45 138.24 235.92 132.81 243.05 126.7C257.25 114.5 266.93 99.36 271.94 81.5C277.36 62.16 277.11 42.44 273.36 22.81ZM68.47 123.21C50.69 124.73 37.19 117.23 26.32 103.6C13.62 87.68 9.21 69.27 9.08 49.43C9.01 38.22 10.87 27.27 13.29 16.38C13.54 15.22 13.72 14.04 14 12.88C14.74 9.81001 16.64 8.59001 19.48 10.02C23.93 12.26 28.51 14.51 32.4 17.57C53.32 33.97 68.35 54.61 75.8 80.31C78.94 91.14 78.74 102.19 75.07 112.96C73.96 116.24 72.13 119.28 70.48 122.35C70.21 122.86 69.18 123.15 68.47 123.21ZM126.26 168.12C122.17 164.14 116.99 163.77 111.68 163.33C107.21 162.96 102.66 162.33 98.37 161.06C90.13 158.63 84.35 153.23 81.24 145.08C80.98 144.4 79.98 143.74 79.22 143.57C76.43 142.97 74.08 141.7 72.64 139.25C72.06 138.26 71.81 136.78 72.1 135.71C72.24 135.17 73.93 134.79 74.92 134.77C80.88 134.66 86.86 134.4 92.8 134.7C111.43 135.63 123.51 149.65 127.25 165.34C127.5 166.39 127.62 167.46 127.86 168.84C127.08 168.5 126.57 168.42 126.26 168.12ZM140.99 189.56C136.69 192.15 130.64 188.98 130.13 183.94C129.89 181.66 131.38 180.55 133.02 179.79C134.56 179.08 136.33 178.86 137.99 178.43C142.18 178.72 144.67 180.11 145.32 182.76C145.83 184.83 143.94 187.79 140.99 189.56ZM203.01 138.23C201.64 140.9 199.87 143.18 196.38 143.3C195.64 143.33 194.56 144.22 194.27 144.96C190.15 155.64 179.34 162.5 168.08 162.96C162.94 163.17 157.68 162.88 152.98 165.59C151.43 166.49 150.01 167.6 148.31 168.75C148.59 163.49 150.59 158.98 152.68 154.56C158.38 142.56 168.47 136.74 181.17 134.8C183.51 134.44 185.92 134.39 188.3 134.35C192.35 134.29 196.4 134.33 200.46 134.35C203.08 134.35 204.2 135.92 203.01 138.23ZM262.27 78.97C257.92 91.57 251.38 102.87 241.56 111.95C233.8 119.13 224.37 122.96 213.77 123.71C212.66 123.79 211.54 123.76 210.43 123.85C205.02 124.31 206.39 124.96 203.83 119.91C196.13 104.7 196.87 89.21 202.39 73.61C209.5 53.52 221.48 36.73 237.25 22.53C242.54 17.77 248.27 13.66 254.77 10.68C258.49 8.97001 260.51 9.69001 261.66 13.64C265.01 25.07 266.77 36.75 266.52 50.11C266.75 59.01 265.66 69.16 262.27 78.97Z" fill="#FEFEFE"/>
<path d="M188.24 276.93C183.75 283.79 178 289.91 172.35 295.93C161.56 307.43 151.61 319.47 145.17 334.03C140.47 344.65 139.71 355.85 140.96 367.25C141.27 370.14 141.96 373 142.48 375.87C142.33 375.97 142.18 376.07 142.03 376.17C137.39 370.84 132.59 365.64 128.15 360.15C121.89 352.38 117.42 343.54 114.76 333.95C111.52 322.31 110.94 310.44 113.11 298.5C114.96 288.29 117.72 278.42 123.11 269.4C130.28 257.4 139.81 247.37 149.2 237.17C155.87 229.92 162.5 222.58 168.5 214.77C172.84 209.1 175.83 202.51 175.74 194.79C178.18 199 180.68 203.17 183.03 207.43C188.14 216.74 192.65 226.29 194.5 236.88C196.95 250.95 196.23 264.72 188.24 276.93Z" fill="#FEFEFE"/>
<path d="M235.472 318.264H254.672V363.064H242.768V328.632L224.656 363.064H221.136L203.024 328.632V363.064H191.12V318.264H210.32L222.864 342.584L235.472 318.264ZM261.931 318.264H281.323L301.803 352.632V318.264H313.835V363H294.251L273.963 328.632V363H261.931V318.264ZM365.346 318.264H384.546V363H372.642V328.632L354.53 363H351.01L332.898 328.632V363H320.994V318.264H340.194L352.738 342.584L365.346 318.264ZM429.184 318.52L442.752 363.256H430.592L427.456 352.888H403.392L400.256 363.256H388.096L401.664 318.52H429.184ZM420.032 328.312H410.816L406.592 342.52H424.256L420.032 328.312Z" fill="#FEFEFE"/>
</g>
<defs>
    <clipPath id="clip0">
      <rect width="276.1" height="376.17" fill="white"/>
    </clipPath>
  </defs>
</svg>
